<?xml version="1.0" encoding="UTF-8" standalone="no"?>
<!-- Created with Inkscape (http://www.inkscape.org/) -->

<svg
   width="117.42083mm"
   height="9.1117554mm"
   viewBox="0 0 117.42083 9.1117552"
   version="1.1"
   id="svg82704"
   inkscape:version="1.2 (dc2aedaf03, 2022-05-15)"
   sodipodi:docname="ateliernumerique.svg"
   xmlns:inkscape="http://www.inkscape.org/namespaces/inkscape"
   xmlns:sodipodi="http://sodipodi.sourceforge.net/DTD/sodipodi-0.dtd"
   xmlns="http://www.w3.org/2000/svg"
   xmlns:svg="http://www.w3.org/2000/svg">
  <sodipodi:namedview
     id="namedview82706"
     pagecolor="#ffffff"
     bordercolor="#666666"
     borderopacity="1.0"
     inkscape:pageshadow="2"
     inkscape:pageopacity="0.0"
     inkscape:pagecheckerboard="0"
     inkscape:document-units="mm"
     showgrid="false"
     fit-margin-top="0"
     fit-margin-left="0"
     fit-margin-right="0"
     fit-margin-bottom="0"
     inkscape:zoom="3.0574074"
     inkscape:cx="222.5742"
     inkscape:cy="42.192611"
     inkscape:window-width="1920"
     inkscape:window-height="1017"
     inkscape:window-x="3832"
     inkscape:window-y="-8"
     inkscape:window-maximized="1"
     inkscape:current-layer="layer1"
     inkscape:showpageshadow="2"
     inkscape:deskcolor="#d1d1d1" />
  <defs
     id="defs82701" />
  <g
     inkscape:label="Layer 1"
     inkscape:groupmode="layer"
     id="layer1"
     transform="translate(-52.058813,-110.57482)">
    <g
       aria-label="L'ATELIER NUMERIQUE"
       id="g63026"
       style="font-size:40px;line-height:1.25;letter-spacing:0px;word-spacing:0px;fill:#c83737"
       transform="matrix(0.26458333,0,0,0.26458333,-865.22942,-459.81511)">
      <path
         d="m 3466.9162,2186.7626 c 0,1.44 1.12,2.44 2.52,2.44 h 13.24 c 4,0 3.92,-5.24 0,-5.24 h -10.88 v -16.04 c 0,-1.32 -1.08,-2.44 -2.36,-2.44 -1.4,0 -2.52,1.12 -2.52,2.44 z"
         style="font-family:Multicolore;-inkscape-font-specification:Multicolore;fill:#c83737"
         id="path62988"
         sodipodi:nodetypes="sssscssss" />
      <path
         d="m 3489.0362,2170.0426 c 0,2.76 4.56,2.6 4.56,0 v -6.88 c 0,-2.44 -4.56,-2.48 -4.56,0 z"
         style="font-family:Multicolore;-inkscape-font-specification:Multicolore;fill:#c83737"
         id="path62990" />
      <path
         d="m 3500.9962,2187.8426 1.72,-3.52 h 14.76 l 0.6881,1.52 c 1.44,3.12 6.28,0.64 4.64,-2.48 l -10.2081,-20.44 c -1,-2.2 -3.88,-2.12 -4.96,0 l -11.48,22.44 c -0.8,1.68 0,3.12 1.28,3.84 1.44,0.28 2.92,0 3.56,-1.36 z m 4.2,-8.8 4.92,-9.88 4.52,9.88 z"
         style="font-family:Multicolore;-inkscape-font-specification:Multicolore;fill:#c83737"
         id="path62992"
         sodipodi:nodetypes="cccccccccccccc" />
      <path
         d="m 3531.5961,2186.7226 c 0,3.56 5.28,3.48 5.28,0 v -20.2 h 6.64 c 3.56,0 3.56,-5.12 0,-5.12 h -14.92 c -3.48,0 -3.48,5.12 0,5.12 h 3 z"
         style="font-family:Multicolore;-inkscape-font-specification:Multicolore;fill:#c83737"
         id="path62994"
         sodipodi:nodetypes="sscsssscs" />
      <path
         d="m 3563.476,2189.2026 c 3.92,0 3.64,-5.24 0,-5.24 h -8.2 v -6 h 10.08 c 3.56,0 3.56,-5.24 0,-5.24 h -10.08 v -6 h 11.52 c 3.6,0 3.68,-5.2 0,-5.2 h -14.36 c -1.4,0 -2.48,1.04 -2.48,2.48 v 22.72 c 0,1.4 1.08,2.48 2.48,2.48 z"
         style="font-family:Multicolore;-inkscape-font-specification:Multicolore;fill:#c83737"
         id="path62996"
         sodipodi:nodetypes="ssccssccsssssss" />
      <path
         d="m 3574.596,2186.7626 c 0,1.44 1.12,2.44 2.52,2.44 h 13.24 c 4,0 3.92,-5.24 0,-5.24 h -10.88 v -16.04 c 0,-1.32 -1.08,-2.44 -2.36,-2.44 -1.4,0 -2.52,1.12 -2.52,2.44 z"
         style="font-family:Multicolore;-inkscape-font-specification:Multicolore;fill:#c83737"
         id="path62998"
         sodipodi:nodetypes="sssscssss" />
      <path
         d="m 3597.716,2182.7626 c 0,3.4 5.28,3.32 5.28,0 v -18.84 c 0,-3.4 -5.28,-3.28 -5.28,0 z"
         style="font-family:Multicolore;-inkscape-font-specification:Multicolore;fill:#c83737"
         id="path63000"
         sodipodi:nodetypes="sssss" />
      <path
         d="m 3626.396,2189.2026 c 3.92,0 3.64,-5.24 0,-5.24 h -12.2 v -6 h 10.08 c 3.56,0 3.56,-5.24 0,-5.24 h -10.08 v -6 h 7.52 c 3.6,0 3.68,-5.2 0,-5.2 h -10.36 c -1.4,0 -2.48,1.04 -2.48,2.48 v 22.72 c 0,1.4 1.08,2.48 2.48,2.48 z"
         style="font-family:Multicolore;-inkscape-font-specification:Multicolore;fill:#c83737"
         id="path63002"
         sodipodi:nodetypes="ssccssccsssssss" />
      <path
         d="m 3638.8359,2179.3626 h 6.28 l 6.04,8.64 c 2.4,3.04 6.56,0.08 4.48,-3 l -5.32,-6.48 c 8.48,-3.4 6.4,-17 -3.76,-17 h -10.64 c -1.32,0 -2.4,1.04 -2.4,2.44 v 18.72 c 0,3.52 5.32,3.4 5.32,-0.08 z m 0,-13 h 7.72 c 5.52,0 5.2,8.4 0,8.4 h -7.72 z"
         style="font-family:Multicolore;-inkscape-font-specification:Multicolore;fill:#c83737"
         id="path63004"
         sodipodi:nodetypes="cccccsssssccsscc" />
      <path
         d="m 3672.2759,2182.4426 c 0,1.76 1.28,2.76 2.72,2.76 1.44,0 2.52,-1 2.52,-2.76 v -11.44 l 13.24,16.8 c 1.16,1.08 1.84,1.4 3.24,1.4 1.04,-0.32 2.12,-1 2.12,-2.76 v -22.52 c 0,-1.32 -1.4,-2.76 -2.84,-2.76 -1.36,0 -2.52,1.44 -2.52,2.76 v 15.52 l -13.24,-16.56 c -1.08,-1.04 -1.4,-1.4 -2.84,-1.4 -2.08,0 -2.4,1.4 -2.4,2.84 z"
         style="font-family:Multicolore;-inkscape-font-specification:Multicolore;fill:#c83737"
         id="path63006"
         sodipodi:nodetypes="ssscccssssccsss" />
      <path
         d="m 3720.5158,2178.6426 c 0,8.36 -13.64,7.88 -13.64,0 v -10.48 c 0,-3.76 -5.24,-3.6 -5.24,0 v 10.48 c 0,14.96 24.12,14.96 24.12,0 v -14.48 c 0,-3.84 -5.24,-3.56 -5.24,0 z"
         style="font-family:Multicolore;-inkscape-font-specification:Multicolore;fill:#c83737"
         id="path63008"
         sodipodi:nodetypes="sssssssss" />
      <path
         d="m 3742.5958,2180.0426 c 1.32,1.76 3.12,1.76 4.56,0 l 6.64,-8.4 v 10.8 c 0,1.76 1.12,2.76 2.56,2.76 1.28,0 2.4,-1 2.4,-2.76 v -18.52 c 0,-2.76 -3.24,-3.4 -4.56,-1.76 l -9.12,12.32 -8.8,-11.88 c -0.68,-0.76 -1.36,-1.44 -2.52,-1.44 -0.64,0 -2.4,0.68 -2.4,2.76 v 22.52 c 0,1.76 1.12,2.76 2.4,2.76 1.44,0 2.88,-1 2.88,-2.76 v -14.8 z"
         style="font-family:Multicolore;-inkscape-font-specification:Multicolore;fill:#c83737"
         id="path63010"
         sodipodi:nodetypes="cccsssscccssssscc" />
      <path
         d="m 3777.7957,2189.2026 c 3.92,0 3.64,-5.24 0,-5.24 h -8.2 v -6 h 10.08 c 3.56,0 3.56,-5.24 0,-5.24 h -10.08 v -6 h 11.52 c 3.6,0 3.68,-5.2 0,-5.2 h -14.36 c -1.4,0 -2.48,1.04 -2.48,2.48 v 22.72 c 0,1.4 1.08,2.48 2.48,2.48 z"
         style="font-family:Multicolore;-inkscape-font-specification:Multicolore;fill:#c83737"
         id="path63012"
         sodipodi:nodetypes="ssccssccsssssss" />
      <path
         d="m 3794.2357,2179.3626 h 6.28 l 2.04,4.64 c 2.4,3.04 6.56,0.08 4.48,-3 l -1.32,-2.48 c 8.48,-3.4 6.4,-17 -3.76,-17 h -10.64 c -1.32,0 -2.4,1.04 -2.4,2.44 v 22.72 c 0,3.52 5.32,3.4 5.32,-0.08 z m 0,-13 h 7.72 c 5.52,0 5.2,8.4 0,8.4 h -7.72 z"
         style="font-family:Multicolore;-inkscape-font-specification:Multicolore;fill:#c83737"
         id="path63014"
         sodipodi:nodetypes="cccccsssssccsscc" />
      <path
         d="m 3816.2357,2186.7626 c 0,3.4 5.28,3.32 5.28,0 v -18.84 c 0,-3.4 -5.28,-3.28 -5.28,0 z"
         style="font-family:Multicolore;-inkscape-font-specification:Multicolore;fill:#c83737"
         id="path63016"
         sodipodi:nodetypes="sssss" />
      <path
         d="m 3856.1156,2175.5626 c 0,-9.84 -7.28,-14.84 -14.72,-14.84 -7.08,0 -15.08,5 -15.08,14.84 0,9.84 8.04,14.68 15.08,14.68 3.24,0 5.68,-0.68 7.76,-2.12 l 1.36,1.08 c 2.68,2.52 6.12,-1.4 3.48,-3.8 l -0.64,-0.76 c 1.8,-2.48 2.76,-5.28 2.76,-9.08 z m -6.6,5.2 -2.52,-2.52 c -2.68,-2.36 -6.04,1.28 -3.92,3.84 l 2.56,2.2 c -1.4,0.36 -2.8,0.72 -4.24,0.72 -5.64,0 -9.76,-4.6 -9.76,-9.44 0,-6.36 4.84,-9.6 9.76,-9.6 4.56,0 9.56,3.24 9.56,9.6 0,2.08 -0.44,3.8 -1.44,5.2 z"
         style="font-family:Multicolore;-inkscape-font-specification:Multicolore;fill:#c83737"
         id="path63018"
         sodipodi:nodetypes="ssssccccsccccssssc" />
      <path
         d="m 3879.5956,2178.6426 c 0,8.36 -13.64,7.88 -13.64,0 v -10.48 c 0,-3.76 -5.24,-3.6 -5.24,0 v 10.48 c 0,14.96 24.12,14.96 24.12,0 v -14.48 c 0,-3.84 -5.24,-3.56 -5.24,0 z"
         style="font-family:Multicolore;-inkscape-font-specification:Multicolore;fill:#c83737"
         id="path63020"
         sodipodi:nodetypes="sssssssss" />
      <path
         d="m 3907.8755,2189.2026 c 3.92,0 3.64,-5.24 0,-5.24 h -12.2 v -6 h 10.08 c 3.56,0 3.56,-5.24 0,-5.24 h -10.08 v -6 h 7.52 c 3.6,0 3.68,-5.2 0,-5.2 h -10.36 c -1.4,0 -2.48,1.04 -2.48,2.48 v 22.72 c 0,1.4 1.08,2.48 2.48,2.48 z"
         style="font-family:Multicolore;-inkscape-font-specification:Multicolore;fill:#c83737"
         id="path63022"
         sodipodi:nodetypes="ssccssccsssssss" />
      <path
         d="m 3772.0557,2164.5295 c 0,2.76 4.56,2.6 4.56,0 v -6.88 c 0,-2.44 -4.56,-2.48 -4.56,0 z"
         style="font-family:Multicolore;-inkscape-font-specification:Multicolore;fill:#c83737"
         id="path63024" />
    </g>
  </g>
</svg>
